<svg width="48" height="48" viewBox="0 0 48 48" fill="none" xmlns="http://www.w3.org/2000/svg">
<rect width="48" height="48" rx="10" fill="#F2CE3C"/>
<path d="M11.2 30.4V17.6M11.2 30.4L24 37.8666M11.2 30.4L18.6666 27.2M11.2 17.6L24 10.1333M11.2 17.6L24 24M24 10.1333L36.7999 17.6M24 10.1333V17.6M36.7999 17.6V30.4M36.7999 17.6L24 24M36.7999 30.4L24 37.8666M36.7999 30.4L29.3333 27.2M24 37.8666V24M24 17.6L18.6666 20.8V27.2M24 17.6L29.3333 20.8V27.2M18.6666 27.2L24 30.4L29.3333 27.2" stroke="black" stroke-width="2"/>
</svg>
