<svg width="48" height="48" viewBox="0 0 48 48" fill="none" xmlns="http://www.w3.org/2000/svg">
<rect width="48" height="48" rx="10" fill="#F2CE3C"/>
<path d="M17.6 24L26.1333 24M31.4667 16.5333L26.1333 23.9902L31.4667 31.4666M38.9333 13.3305C38.9333 15.6842 37.0219 17.5944 34.6667 17.5944C32.3115 17.5944 30.4 15.6842 30.4 13.3305C30.4 10.9769 32.3115 9.06665 34.6667 9.06665C37.0219 9.06665 38.9333 10.9769 38.9333 13.3305ZM38.9333 34.6499C38.9333 37.0036 37.0219 38.9138 34.6667 38.9138C32.3115 38.9138 30.4 37.0036 30.4 34.6499C30.4 32.2963 32.3115 30.3861 34.6667 30.3861C37.0219 30.3861 38.9333 32.2963 38.9333 34.6499ZM17.6 23.9902C17.6 26.3439 15.6885 28.2541 13.3333 28.2541C10.9781 28.2541 9.06665 26.3439 9.06665 23.9902C9.06665 21.6366 10.9781 19.7264 13.3333 19.7264C15.6885 19.7264 17.6 21.6366 17.6 23.9902Z" stroke="black" stroke-width="2" stroke-linecap="square"/>
</svg>
