<svg width="21" height="21" viewBox="0 0 21 21" fill="none" xmlns="http://www.w3.org/2000/svg">
<path d="M7.5001 1L2.50005 1.00002C1.72685 1.00002 1.10005 1.62683 1.10005 2.40002L1.10005 7.40005C1.10005 8.17325 1.72685 8.80005 2.50005 8.80005L7.5001 8.79993C8.27329 8.79993 8.9001 8.17312 8.9001 7.39993V2.4C8.9001 1.6268 8.27329 1 7.5001 1Z" stroke="black" stroke-width="2"/>
<path d="M7.50002 12.2001L2.49998 12.2001C1.72678 12.2001 1.09998 12.8269 1.09998 13.6001L1.09998 18.6001C1.09998 19.3733 1.72678 20.0001 2.49998 20.0001L7.50002 20C8.27322 20 8.90002 19.3732 8.90002 18.6V13.6001C8.90002 12.8269 8.27322 12.2001 7.50002 12.2001Z" stroke="black" stroke-width="2"/>
<path d="M18.5 12.2L13.5 12.2C12.7268 12.2 12.1 12.8268 12.1 13.6V18.6C12.1 19.3732 12.7268 20 13.5 20L18.5 19.9999C19.2732 19.9999 19.9 19.3731 19.9 18.5999V13.6C19.9 12.8268 19.2732 12.2 18.5 12.2Z" stroke="black" stroke-width="2"/>
<path d="M18.5 1.00012L13.5 1.00015C12.7268 1.00015 12.1 1.62695 12.1 2.40015V7.40017C12.1 8.17337 12.7268 8.80017 13.5 8.80017L18.5 8.80005C19.2732 8.80005 19.9 8.17325 19.9 7.40005V2.40012C19.9 1.62692 19.2732 1.00012 18.5 1.00012Z" stroke="black" stroke-width="2"/>
</svg>
