<svg width="23" height="23" viewBox="0 0 23 23" fill="none" xmlns="http://www.w3.org/2000/svg">
<path d="M7.29995 8.69995V7.69995C6.74767 7.69995 6.29995 8.14767 6.29995 8.69995H7.29995ZM7.29995 10.1L8.00706 10.8071L8.29995 10.5142V10.1H7.29995ZM4.91 10.51L4.20289 11.2171L4.20289 11.2171L4.91 10.51ZM10.1 19.1999H11.1V18.7857L10.8071 18.4928L10.1 19.1999ZM8.69995 17.7999H7.69995V18.2142L7.99284 18.5071L8.69995 17.7999ZM8.69995 15.6999H9.69995V15.2857L9.40706 14.9928L8.69995 15.6999ZM7.29995 14.2999H6.29995V14.7142L6.59284 15.0071L7.29995 14.2999ZM7.29995 12.9V11.9C6.74767 11.9 6.29995 12.3477 6.29995 12.9H7.29995ZM13.2999 1.69995V4.49995H15.2999V1.69995H13.2999ZM12.9 4.89995H11.5V6.89995H12.9V4.89995ZM8.69995 7.69995H7.29995V9.69995H8.69995V7.69995ZM6.29995 8.69995V10.1H8.29995V8.69995H6.29995ZM6.59284 9.39284L6.18279 9.80289L7.59701 11.2171L8.00706 10.8071L6.59284 9.39284ZM5.61711 9.80289L3.10706 7.29284L1.69284 8.70706L4.20289 11.2171L5.61711 9.80289ZM9.09995 7.29995C9.09995 7.52086 8.92086 7.69995 8.69995 7.69995V9.69995C10.0254 9.69995 11.1 8.62543 11.1 7.29995H9.09995ZM11.5 4.89995C10.1745 4.89995 9.09995 5.97447 9.09995 7.29995H11.1C11.1 7.07904 11.279 6.89995 11.5 6.89995V4.89995ZM6.18279 9.80289C6.02658 9.9591 5.77332 9.9591 5.61711 9.80289L4.20289 11.2171C5.14015 12.1544 6.65975 12.1544 7.59701 11.2171L6.18279 9.80289ZM13.2999 4.49995C13.2999 4.72086 13.1209 4.89995 12.9 4.89995V6.89995C14.2254 6.89995 15.2999 5.82543 15.2999 4.49995H13.2999ZM11.1 21.2999V19.1999H9.09995V21.2999H11.1ZM10.8071 18.4928L9.40706 17.0928L7.99284 18.5071L9.39284 19.9071L10.8071 18.4928ZM9.69995 17.7999V15.6999H7.69995V17.7999H9.69995ZM9.40706 14.9928L8.00706 13.5928L6.59284 15.0071L7.99284 16.4071L9.40706 14.9928ZM8.29995 14.2999V12.9H6.29995V14.2999H8.29995ZM7.29995 13.9H12.9V11.9H7.29995V13.9ZM13.2999 14.2999V15.2333H15.2999V14.2999H13.2999ZM16.1666 18.0999H19.8999V16.0999H16.1666V18.0999ZM14.6999 16.6333C14.6999 17.4433 15.3566 18.0999 16.1666 18.0999V16.0999C16.4612 16.0999 16.6999 16.3387 16.6999 16.6333H14.6999ZM14.7666 16.6999C14.7298 16.6999 14.6999 16.6701 14.6999 16.6333H16.6999C16.6999 15.5655 15.8344 14.6999 14.7666 14.6999V16.6999ZM13.2999 15.2333C13.2999 16.0433 13.9566 16.6999 14.7666 16.6999V14.6999C15.0612 14.6999 15.2999 14.9387 15.2999 15.2333H13.2999ZM12.9 13.9C13.1209 13.9 13.2999 14.079 13.2999 14.2999H15.2999C15.2999 12.9745 14.2254 11.9 12.9 11.9V13.9ZM11.5 20.2999C6.63985 20.2999 2.69995 16.3601 2.69995 11.5H0.699951C0.699951 17.4646 5.53528 22.2999 11.5 22.2999V20.2999ZM20.2999 11.5C20.2999 16.3601 16.3601 20.2999 11.5 20.2999V22.2999C17.4646 22.2999 22.2999 17.4646 22.2999 11.5H20.2999ZM11.5 2.69995C16.3601 2.69995 20.2999 6.63985 20.2999 11.5H22.2999C22.2999 5.53528 17.4646 0.699951 11.5 0.699951V2.69995ZM11.5 0.699951C5.53528 0.699951 0.699951 5.53528 0.699951 11.5H2.69995C2.69995 6.63985 6.63985 2.69995 11.5 2.69995V0.699951Z" fill="black"/>
</svg>
