<svg width="204" height="40" viewBox="0 0 204 40" fill="none" xmlns="http://www.w3.org/2000/svg">
<g clip-path="url(#clip0_802_1017)">
<path fill-rule="evenodd" clip-rule="evenodd" d="M57.3 31.7C55.6 31.7 53.9 31.4 52.3 31C50.8 30.5 49.5 29.9 48.4 29L50 25.5C52.2 27 54.6 27.8 57.3 27.8C58.8 27.8 59.8 27.6 60.6 27.1C61.3 26.6 61.7 26.1 61.7 25.2C61.7 24.5 61.4 23.9 60.7 23.5C60 23.1 58.7 22.7 57 22.3C55 21.9 53.4 21.4 52.2 20.8C51.1 20.3 50.2 19.6 49.6 18.8C49.1 17.8 48.8 16.8 48.8 15.6C48.8 14.2 49.2 13 50 12C50.7 10.9 51.8 10 53.2 9.4C54.5 8.8 56.1 8.5 57.9 8.5C59.5 8.5 61 8.8 62.5 9.2C64 9.7 65.2 10.3 66 11.2L64.4 14.7C62.4 13.2 60.2 12.4 57.9 12.4C56.6 12.4 55.6 12.6 54.9 13.2C54.1 13.7 53.7 14.3 53.7 15.2C53.7 15.7 53.9 16.2 54.2 16.5C54.4 16.8 54.9 17.1 55.6 17.4L58.5 18.2C61.4 18.8 63.5 19.6 64.7 20.6C65.3488 21.0856 65.8698 21.7216 66.2182 22.4532C66.5666 23.1849 66.732 23.9903 66.7 24.8C66.7204 25.7737 66.5035 26.7378 66.0679 27.6089C65.6323 28.4801 64.9913 29.2321 64.2 29.8C62.5 31 60.2 31.7 57.2 31.7H57.3ZM78.3 28.1L79.7 28L79.5 31.5L77.6 31.6C75.2 31.6 73.5 31.1 72.4 30.1C71.3 29.1 70.8 27.4 70.8 25.3V19.3H67.8V15.7H70.8V11H75.6V15.6H79.6V19.2H75.6V25.2C75.6 27 76.5 28 78.2 28L78.3 28.1ZM89.4 31.6C87.8 31.6 86.4 31.3 85.1 30.6C83.8428 29.9873 82.7978 29.0121 82.1 27.8C81.5 26.5 81.1 25.1 81.1 23.4C81.1 21.8 81.5 20.4 82.1 19.1C82.7978 17.8879 83.8428 16.9127 85.1 16.3C86.3 15.6 87.8 15.3 89.4 15.3C91.1 15.3 92.6 15.6 93.8 16.3C95.0573 16.9127 96.1022 17.8879 96.8 19.1C97.4 20.3 97.8 21.8 97.8 23.4C97.8 25.1 97.4 26.5 96.8 27.8C96.1022 29.0121 95.0573 29.9873 93.8 30.6C92.6 31.3 91.1 31.6 89.4 31.6ZM89.4 28C91.8 28 93 26.4 93 23.4C93 21.9 92.7 20.8 92 20C91.67 19.6481 91.2648 19.3754 90.8145 19.2022C90.3643 19.0291 89.8807 18.9599 89.4 19C87.1 19 85.9 20.4 85.9 23.4C85.9 26.4 87.1 28 89.4 28V28ZM111.1 19.2L108.4 19.5C107.1 19.7 106.1 20 105.6 20.7C105 21.3 104.7 22.1 104.7 23.2V31.4H100V15.7H104.6V18.3C105.4 16.5 107.1 15.5 109.6 15.3H110.9L111.2 19.3L111.1 19.2ZM125.1 15.7H129.9L120.4 37H115.5L118.5 30.4L112.1 15.6H117.1L121.1 25.6L125.1 15.6V15.7ZM141.1 15.3C142.5 15.3 143.7 15.6 144.7 16.3C145.7 16.9 146.6 17.9 147.2 19.1C147.8 20.3 148.1 21.8 148.1 23.4C148.1 25 147.8 26.4 147.1 27.7C146.584 28.8704 145.753 29.8745 144.7 30.6C143.7 31.3 142.5 31.6 141.1 31.6C140.1 31.6 139.1 31.4 138.1 30.9C137.3 30.5 136.6 29.9 136.1 29V31.4H131.4V8.8H136.2V17.8C136.7 17 137.4 16.4 138.2 15.9C139.1 15.5 140 15.3 141.2 15.3H141.1ZM139.7 28C140.8 28 141.7 27.6 142.3 26.8C142.9 26 143.3 24.8 143.3 23.4C143.3 21.9 142.9 20.9 142.3 20.1C141.7 19.3 140.8 19 139.7 19C138.6 19 137.7 19.3 137.1 20.1C136.5 20.9 136.1 22.1 136.1 23.4C136.1 24.9 136.5 26 137.1 26.8C137.7 27.6 138.6 28 139.7 28ZM158.6 31.6C156.9 31.6 155.4 31.3 154.2 30.6C152.943 29.9873 151.898 29.0121 151.2 27.8C150.6 26.5 150.2 25.1 150.2 23.4C150.2 21.8 150.6 20.4 151.2 19.1C151.898 17.8879 152.943 16.9127 154.2 16.3C155.4 15.6 156.9 15.3 158.6 15.3C160.2 15.3 161.6 15.6 162.9 16.3C164.157 16.9127 165.202 17.8879 165.9 19.1C166.5 20.3 166.9 21.8 166.9 23.4C166.9 25.1 166.5 26.5 165.9 27.8C165.202 29.0121 164.157 29.9873 162.9 30.6C161.7 31.3 160.2 31.6 158.6 31.6V31.6ZM158.6 28C160.9 28 162.1 26.4 162.1 23.4C162.1 21.9 161.8 20.8 161.1 20C160.781 19.6617 160.392 19.397 159.96 19.2243C159.529 19.0516 159.064 18.975 158.6 19C156.2 19 155 20.4 155 23.4C155 26.4 156.2 28 158.6 28ZM176.6 31.6C174.9 31.6 173.4 31.3 172.2 30.6C170.943 29.9873 169.898 29.0121 169.2 27.8C168.6 26.5 168.2 25.1 168.2 23.4C168.2 21.8 168.6 20.4 169.2 19.1C169.898 17.8879 170.943 16.9127 172.2 16.3C173.4 15.6 174.9 15.3 176.6 15.3C178.2 15.3 179.6 15.6 181 16.3C182.22 16.9288 183.229 17.9025 183.9 19.1C184.5 20.3 184.9 21.8 184.9 23.4C184.9 25.1 184.5 26.5 183.9 27.8C183.202 29.0121 182.157 29.9873 180.9 30.6C179.7 31.3 178.2 31.6 176.6 31.6V31.6ZM176.6 28C178.9 28 180.1 26.4 180.1 23.4C180.1 21.9 179.8 20.8 179.1 20C178.781 19.6617 178.392 19.397 177.96 19.2243C177.529 19.0516 177.064 18.975 176.6 19C174.2 19 173 20.4 173 23.4C173 26.4 174.2 28 176.6 28ZM204 31.4H198L192 24.4V31.4H187.2V8.8H192.1V22.4L197.9 15.7H203.6L197 23.2L204 31.4Z" fill="black"/>
<mask id="mask0_802_1017" style="mask-type:alpha" maskUnits="userSpaceOnUse" x="4" y="-1" width="33" height="42">
<path d="M5.2 36.9L4 3.90001C4 2.80001 4.8 1.90001 5.9 1.80001L33.9 5.51436e-06C34.1707 -0.0274805 34.4442 0.000568748 34.7037 0.0824367C34.9632 0.164305 35.2033 0.298269 35.4093 0.476131C35.6152 0.653992 35.7827 0.87201 35.9015 1.11684C36.0202 1.36167 36.0878 1.62816 36.1 1.90001C36.1008 1.93333 36.1008 1.96668 36.1 2.00001V38C36.1 38.5304 35.8893 39.0391 35.5142 39.4142C35.1391 39.7893 34.6304 40 34.1 40C34.0667 40.0008 34.0333 40.0008 34 40L7.2 38.8C6.66957 38.8 6.16086 38.5893 5.78579 38.2142C5.41071 37.8391 5.2 37.3304 5.2 36.8V36.9Z" fill="white"/>
</mask>
<g mask="url(#mask0_802_1017)">
</g>
</g>
<rect width="40" height="40" rx="10" fill="#FFCF26"/>
<path d="M17.3069 24.064C17.2749 24.096 17.2669 24.136 17.2829 24.184C17.3149 24.216 17.3549 24.232 17.4029 24.232H22.1789C22.3229 24.232 22.3949 24.168 22.3949 24.04V13.48C22.3949 13.352 22.3229 13.288 22.1789 13.288H19.4429C19.2989 13.288 19.2269 13.36 19.2269 13.504C19.2269 16.512 19.1069 18.664 18.8669 19.96C18.6269 21.256 18.1069 22.624 17.3069 24.064ZM13.0349 31.36C12.6669 31.36 12.3469 31.224 12.0749 30.952C11.8029 30.68 11.6669 30.36 11.6669 29.992V25.312C11.6669 25.008 11.7709 24.752 11.9789 24.544C12.1869 24.336 12.4429 24.232 12.7469 24.232C12.8909 24.232 12.9789 24.192 13.0109 24.112C13.9549 22.672 14.5789 21.272 14.8829 19.912C15.1869 18.552 15.3389 16.344 15.3389 13.288V11.368C15.3389 11 15.4669 10.68 15.7229 10.408C15.9949 10.136 16.3149 10 16.6829 10H25.0349C25.4029 10 25.7229 10.136 25.9949 10.408C26.2669 10.68 26.4029 11 26.4029 11.368V24.04C26.4029 24.168 26.4669 24.232 26.5949 24.232H27.1469C27.5149 24.232 27.8349 24.368 28.1069 24.64C28.3789 24.912 28.5149 25.232 28.5149 25.6V29.992C28.5149 30.36 28.3789 30.68 28.1069 30.952C27.8349 31.224 27.5149 31.36 27.1469 31.36H26.1149C25.7469 31.36 25.4269 31.224 25.1549 30.952C24.8829 30.68 24.7469 30.36 24.7469 29.992V27.736C24.7469 27.592 24.6829 27.52 24.5549 27.52H15.6269C15.4989 27.52 15.4349 27.592 15.4349 27.736V29.992C15.4349 30.36 15.2989 30.68 15.0269 30.952C14.7549 31.224 14.4349 31.36 14.0669 31.36H13.0349Z" fill="black"/>
<defs>
<clipPath id="clip0_802_1017">
<rect width="200" height="40" fill="white" transform="translate(4)"/>
</clipPath>
</defs>
</svg>
