<svg width="512" height="512" viewBox="0 0 512 512" fill="none" xmlns="http://www.w3.org/2000/svg">
<rect width="512" height="512" rx="50" fill="#FFCF26"/>
<path d="M221.528 308.019C221.118 308.429 221.016 308.941 221.22 309.555C221.63 309.965 222.142 310.17 222.756 310.17H283.889C285.732 310.17 286.654 309.35 286.654 307.712V172.544C286.654 170.906 285.732 170.086 283.889 170.086H248.868C247.025 170.086 246.104 171.008 246.104 172.851C246.104 211.354 244.568 238.899 241.496 255.488C238.424 272.077 231.768 289.587 221.528 308.019ZM166.846 401.408C162.136 401.408 158.04 399.667 154.558 396.186C151.076 392.704 149.336 388.608 149.336 383.898V323.994C149.336 320.102 150.667 316.826 153.329 314.163C155.992 311.501 159.268 310.17 163.16 310.17C165.003 310.17 166.129 309.658 166.539 308.634C178.622 290.202 186.609 272.282 190.5 254.874C194.392 237.466 196.337 209.203 196.337 170.086V145.51C196.337 140.8 197.976 136.704 201.252 133.222C204.734 129.741 208.83 128 213.54 128H320.446C325.156 128 329.252 129.741 332.734 133.222C336.216 136.704 337.956 140.8 337.956 145.51V307.712C337.956 309.35 338.776 310.17 340.414 310.17H347.48C352.19 310.17 356.286 311.91 359.768 315.392C363.249 318.874 364.99 322.97 364.99 327.68V383.898C364.99 388.608 363.249 392.704 359.768 396.186C356.286 399.667 352.19 401.408 347.48 401.408H334.27C329.56 401.408 325.464 399.667 321.982 396.186C318.5 392.704 316.76 388.608 316.76 383.898V355.021C316.76 353.178 315.94 352.256 314.302 352.256H200.024C198.385 352.256 197.566 353.178 197.566 355.021V383.898C197.566 388.608 195.825 392.704 192.344 396.186C188.862 399.667 184.766 401.408 180.056 401.408H166.846Z" fill="black"/>
</svg>
