<svg xmlns="http://www.w3.org/2000/svg" fill="none" width="26" height="26" viewBox="0 0 26 26">
  <path id="bg" fill="none" fill-rule="evenodd" stroke="#000" stroke-linecap="square" stroke-linejoin="round" stroke-width="2" d="m10.373 2.499.137-.699h4.978l.14.699.524 2.557a8.833 8.833 0 0 1 2.294 1.317l2.573-.86.691-.214.36.617 1.77 2.961.36.617-.526.46-1.99 1.692c.011.072.023.143.036.214.064.37.128.742.128 1.133 0 .39-.064.761-.128 1.132a30.76 30.76 0 0 0-.037.214l1.99 1.693.527.46-.36.616-1.77 2.962-.36.619-.69-.216-2.573-.86c-.69.54-1.453.995-2.295 1.317l-.525 2.557-.139.699H10.51l-.137-.7-.527-2.556a8.834 8.834 0 0 1-2.294-1.317l-2.573.86-.69.216-.36-.62-1.77-2.96-.359-.618.525-.459 1.99-1.693-.04-.24c-.062-.363-.125-.725-.125-1.106 0-.381.063-.744.125-1.106l.04-.24-1.99-1.694-.525-.459.358-.617L3.93 5.916l.358-.617.691.214 2.573.86a8.833 8.833 0 0 1 2.294-1.317l.527-2.557ZM13 16.19a3.2 3.2 0 0 0 3.2-3.198 3.2 3.2 0 0 0-6.4 0A3.2 3.2 0 0 0 13 16.19Z" clip-rule="evenodd"/>
</svg>
