<svg width="23" height="23" viewBox="0 0 23 23" fill="none" xmlns="http://www.w3.org/2000/svg">
<path d="M1.69995 14.2999L0.992844 13.5928L0.699951 13.8857V14.2999H1.69995ZM14.3 1.69995L15.0071 0.992844C14.6165 0.60232 13.9834 0.60232 13.5928 0.992844L14.3 1.69995ZM21.3 8.69995L22.0071 9.40706C22.1946 9.21952 22.3 8.96517 22.3 8.69995C22.3 8.43473 22.1946 8.18038 22.0071 7.99284L21.3 8.69995ZM8.69995 21.2999V22.2999H9.11416L9.40706 22.0071L8.69995 21.2999ZM1.69995 21.2999H0.699951C0.699951 21.8522 1.14767 22.2999 1.69995 22.2999L1.69995 21.2999ZM2.40706 15.0071L15.0071 2.40706L13.5928 0.992844L0.992844 13.5928L2.40706 15.0071ZM13.5928 2.40706L20.5928 9.40706L22.0071 7.99284L15.0071 0.992844L13.5928 2.40706ZM20.5928 7.99284L7.99284 20.5928L9.40706 22.0071L22.0071 9.40706L20.5928 7.99284ZM8.69995 20.2999H1.69995V22.2999H8.69995V20.2999ZM2.69995 21.2999V14.2999H0.699951V21.2999H2.69995ZM9.39284 6.60706L16.3928 13.6071L17.8071 12.1928L10.8071 5.19284L9.39284 6.60706ZM12.2 22.2999H22V20.2999H12.2V22.2999Z" fill="black"/>
</svg>
